# xmcd
#
# Track frame offsets: 
#        150
#        12287
#        25675
#        39755
#        51477
#        63077
#        75485
#        90257
#        103797
#        116550
#
# Disc length: 1742 seconds
#
# Revision: 2
# Processed by: cddbd v1.5.2PL0 Copyright (c) Steve Scherf et al.
# Submitted via: ExactAudioCopy v0.95a4
#
DISCID=6906cc0a
DTITLE=Glen Campbell - Classics Collection
DYEAR=1995
DGENRE=Country
TTITLE0=Galveston
TTITLE1=Gentle On M\\y Mind
TTITLE2=Wichita Lineman
TTITLE3=Dreams Of The Everyday Housewife
TTITLE4=Hey Little One
TTITLE5=By The Time I Get To Phoenix
TTITLE6=Rhinestone Cowboy
TTITLE7=Southern Nights
TTITLE8=Bonaparte's Retreat
TTITLE9=Country Boy (You Got Your Feet In L.A.)
EXTD=
EXTT0=
EXTT1=
EXTT2=
EXTT3=
EXTT4=
EXTT5=
EXTT6=
EXTT7=
EXTT8=
EXTT9=
PLAYORDER=
